# xmcd CD database file
#
# Track frame offsets:
#	150
#	19360
#	34877
#	52973
#	68971
#	84486
#	112648
#	131106
#	144056
#	162656
#	177401
#	196328
#	214653
#
# Disc length: 3129 seconds
#
# Revision: 0
# Processed by: cddbd v1.5.1PL0 Copyright (c) Steve Scherf et al.
# Submitted via: CDex 1.51
#
DISCID=b40c370d
DTITLE=Johnny Winter - I'm a Bluesman
DYEAR=2004
DGENRE=Blues
TTITLE0=I'm a Bluesman
TTITLE1=Cheatin' Blues
TTITLE2=I Smell Smoke
TTITLE3=Lone Wolf
TTITLE4=So Much Love
TTITLE5=The Monkey Song
TTITLE6=Shake Down
TTITLE7=Sweet Little Baby
TTITLE8=Pack Your Bags
TTITLE9=Last Night
TTITLE10=That Wouldn't Satisfy
TTITLE11=Sugar Coated Love
TTITLE12=Let's Start All Over Again
EXTD=YEAR: 2004
EXTT0=
EXTT1=
EXTT2=
EXTT3=
EXTT4=
EXTT5=
EXTT6=
EXTT7=
EXTT8=
EXTT9=
EXTT10=
EXTT11=
EXTT12=
PLAYORDER=
